<?xml version="1.0" encoding="UTF-8"?>
<svg id="Camada_1" data-name="Camada 1" xmlns="http://www.w3.org/2000/svg" viewBox="0 0 1920 1080">
  <defs>
    <style>
      .cls-1 {
        fill: #fff;
      }
    </style>
  </defs>
  <rect class="cls-1" x="-4.18" width="1928.36" height="1080"/>
  <g>
    <g>
      <g>
        <path d="M1208.41,583.28c.23-.06.43-.17.6-.32.17-.19.28-.44.32-.74.04-.3.06-.84.06-1.62l.58.45h-2.01v-4.11h3.11v3.3c0,1.14-.04,1.95-.13,2.41-.09.46-.26.86-.52,1.18-.26.3-.61.52-1.07.66-.45.14-1.13.21-2.04.21v-1.33c.5,0,.86-.03,1.08-.1Z"/>
        <g>
          <path d="M674.13,578.3h13.04c2.67,0,4.73.06,6.16.18,1.43.12,2.57.33,3.41.65.84.31,1.59.77,2.23,1.38.58.56,1.03,1.19,1.34,1.89.31.7.54,1.61.68,2.72.14,1.11.21,2.59.21,4.45s-.07,3.34-.21,4.45c-.14,1.11-.37,2.02-.68,2.72-.31.7-.76,1.33-1.34,1.89-.65.6-1.39,1.06-2.23,1.38-.84.31-1.98.53-3.41.65-1.44.12-3.49.18-6.16.18h-13.04v-22.52ZM692.33,598.09c1.2-.1,2.13-.25,2.8-.47.67-.22,1.22-.54,1.65-.97.39-.39.69-.83.89-1.31.21-.49.34-1.17.42-2.05.08-.88.11-2.12.11-3.72s-.04-2.8-.13-3.69c-.09-.88-.23-1.57-.44-2.07-.21-.5-.49-.93-.86-1.29-.45-.45-1.01-.79-1.67-1-.66-.22-1.59-.37-2.8-.47-1.21-.1-2.92-.15-5.15-.15h-10.13v17.34h10.13c2.24,0,3.96-.05,5.16-.15Z"/>
          <path d="M709.27,578.3h2.91v22.52h-2.91v-22.52Z"/>
          <path d="M726.63,600.79c-2.04-.24-3.85-.52-5.42-.84v-2.65c1.6.35,3.41.64,5.45.89,2.04.25,4.06.37,6.07.37,2.59,0,4.46-.06,5.61-.18,1.15-.12,2.03-.3,2.64-.53.65-.3,1.12-.7,1.41-1.2.29-.5.44-1.13.44-1.91,0-.63-.12-1.15-.36-1.59-.24-.43-.62-.8-1.13-1.1-.45-.24-1.05-.45-1.8-.65-.74-.19-1.75-.37-3.03-.52l-8.38-.94c-1.92-.22-3.43-.55-4.51-1-1.09-.45-1.86-1.05-2.31-1.8-.45-.74-.68-1.7-.68-2.86,0-1.34.21-2.39.63-3.15.42-.77,1.06-1.4,1.93-1.89.56-.3,1.18-.54,1.86-.71.68-.17,1.63-.31,2.86-.4,1.23-.1,2.9-.15,5.02-.15s4.27.08,6.33.24c2.06.16,3.84.36,5.35.6v2.65c-1.55-.26-3.36-.47-5.42-.65-2.06-.17-4.15-.26-6.26-.26-2.42,0-4.16.06-5.23.18-1.07.12-1.89.32-2.48.6-.54.26-.94.63-1.21,1.1-.27.47-.4,1.09-.4,1.84,0,.52.1.96.31,1.33.21.37.52.67.95.91.37.22.93.4,1.68.57.75.16,1.8.33,3.14.5l8.64.94c1.83.19,3.29.53,4.37,1,1.08.47,1.87,1.13,2.36,1.97.5.84.74,1.92.74,3.24s-.23,2.38-.7,3.19c-.46.81-1.22,1.47-2.28,1.99-.56.28-1.21.51-1.96.7-.74.18-1.75.32-3.03.4-1.27.09-2.98.13-5.11.13s-4.06-.12-6.1-.36Z"/>
          <path d="M762.63,580.89h-12v-2.59h26.92v2.59h-12v19.93h-2.91v-19.93Z"/>
          <path d="M783.79,578.3h12.46c2.42,0,4.41.07,5.97.21,1.56.14,2.79.48,3.67,1.02.93.52,1.56,1.23,1.91,2.14.34.91.52,2.19.52,3.85,0,1.53-.15,2.73-.45,3.61-.3.87-.82,1.57-1.55,2.09-.58.43-1.31.75-2.18.95-.87.21-2.07.35-3.58.44l8.54,8.22h-3.88l-8.35-8.12c-.63.02-1.51.03-2.65.03h-7.51v8.09h-2.91v-22.52ZM799.47,590.21c1.2-.04,2.11-.12,2.73-.24.63-.12,1.15-.3,1.59-.53.56-.32.95-.77,1.18-1.34.23-.57.34-1.42.34-2.54s-.11-1.93-.34-2.49c-.23-.56-.62-1-1.18-1.33-.43-.24-.96-.42-1.59-.55-.63-.13-1.54-.22-2.73-.26-1.2-.04-2.81-.06-4.84-.06h-7.93v9.42h7.93c2.03,0,3.64-.02,4.84-.06Z"/>
          <path d="M816.89,578.3h2.91v22.52h-2.91v-22.52Z"/>
          <path d="M828.35,578.3h11.58c2.48,0,4.39.03,5.73.08,1.34.05,2.36.14,3.07.26.71.12,1.32.31,1.81.57.78.41,1.36.98,1.75,1.7.39.72.58,1.7.58,2.93,0,1.12-.16,2.02-.47,2.7-.31.68-.8,1.24-1.47,1.67-.63.39-1.37.64-2.23.74.69.09,1.25.19,1.67.31.42.12.79.29,1.12.5.78.43,1.36,1.05,1.76,1.84.4.8.6,1.86.6,3.17s-.2,2.37-.6,3.17c-.4.8-1.02,1.42-1.86,1.88-.5.26-1.11.46-1.83.61-.72.15-1.76.25-3.12.31-1.36.05-3.3.08-5.82.08h-12.26v-22.52ZM844.57,587.96c1.13-.05,1.97-.13,2.52-.23.55-.1,1.01-.25,1.38-.47.5-.26.85-.61,1.07-1.05.22-.44.32-1.07.32-1.89s-.11-1.42-.32-1.88c-.22-.45-.56-.81-1.04-1.07-.35-.19-.79-.33-1.34-.42-.55-.09-1.38-.15-2.49-.19-1.11-.04-2.68-.06-4.71-.06h-8.7v7.35h8.67c1.96,0,3.51-.03,4.64-.08ZM845.41,598.35c1.13-.05,1.98-.13,2.54-.24.56-.11,1.02-.27,1.39-.49.54-.3.92-.71,1.15-1.21.23-.51.34-1.2.34-2.09s-.11-1.58-.34-2.09c-.23-.51-.59-.91-1.08-1.21-.35-.22-.8-.38-1.37-.5-.57-.12-1.45-.2-2.62-.26-1.18-.05-2.73-.08-4.68-.08h-9.48v8.25h9.42c2.03,0,3.61-.03,4.74-.08Z"/>
          <path d="M868.99,601c-1.36-.1-2.43-.27-3.2-.52-.78-.25-1.48-.64-2.1-1.18-.6-.5-1.06-1.06-1.36-1.7-.3-.64-.52-1.49-.65-2.57-.13-1.08-.19-2.57-.19-4.47v-12.26h2.94v12.26c0,1.62.04,2.85.13,3.7.09.85.23,1.49.42,1.91.19.42.47.78.84,1.08.41.35.92.6,1.52.76.6.16,1.47.28,2.6.36,1.13.08,2.77.11,4.9.11s3.77-.04,4.9-.11c1.13-.08,2-.19,2.6-.36s1.11-.42,1.52-.76c.37-.3.65-.66.84-1.08.19-.42.33-1.06.42-1.91.09-.85.13-2.09.13-3.7v-12.26h2.94v12.26c0,1.9-.06,3.39-.19,4.47-.13,1.08-.35,1.94-.65,2.57-.3.64-.76,1.2-1.36,1.7-.63.54-1.33.93-2.1,1.18-.78.25-1.84.42-3.2.52-1.36.1-3.31.15-5.86.15s-4.5-.05-5.86-.15Z"/>
          <path d="M896.65,578.3h2.91v22.52h-2.91v-22.52Z"/>
          <path d="M908.11,578.3h13.04c2.67,0,4.73.06,6.16.18,1.43.12,2.57.33,3.41.65.84.31,1.59.77,2.23,1.38.58.56,1.03,1.19,1.34,1.89.31.7.54,1.61.68,2.72.14,1.11.21,2.59.21,4.45s-.07,3.34-.21,4.45c-.14,1.11-.37,2.02-.68,2.72-.31.7-.76,1.33-1.34,1.89-.65.6-1.39,1.06-2.23,1.38-.84.31-1.98.53-3.41.65-1.44.12-3.49.18-6.16.18h-13.04v-22.52ZM926.31,598.09c1.2-.1,2.13-.25,2.8-.47.67-.22,1.22-.54,1.65-.97.39-.39.69-.83.89-1.31.21-.49.34-1.17.42-2.05.08-.88.11-2.12.11-3.72s-.04-2.8-.13-3.69c-.09-.88-.23-1.57-.44-2.07-.21-.5-.49-.93-.86-1.29-.45-.45-1.01-.79-1.67-1-.66-.22-1.59-.37-2.8-.47-1.21-.1-2.92-.15-5.15-.15h-10.13v17.34h10.13c2.24,0,3.96-.05,5.16-.15Z"/>
          <path d="M950.69,600.97c-1.45-.12-2.59-.33-3.43-.65-.84-.31-1.59-.78-2.23-1.41-.63-.58-1.1-1.23-1.41-1.96-.31-.72-.53-1.65-.66-2.78-.13-1.13-.19-2.66-.19-4.58s.06-3.48.19-4.61.35-2.06.66-2.78c.31-.72.78-1.37,1.41-1.96.65-.63,1.39-1.1,2.23-1.42.84-.32,1.99-.54,3.45-.66,1.46-.12,3.53-.18,6.23-.18s4.75.06,6.21.18c1.47.12,2.63.34,3.48.66.85.32,1.6.8,2.25,1.42.58.58,1.04,1.24,1.36,1.96.32.72.55,1.65.68,2.78s.19,2.66.19,4.58-.06,3.45-.19,4.58c-.13,1.13-.36,2.06-.68,2.78-.32.72-.78,1.37-1.36,1.96-.65.63-1.4,1.1-2.25,1.42-.85.32-2.01.54-3.48.66-1.47.12-3.54.18-6.21.18s-4.8-.06-6.25-.18ZM962.14,598.35c1.21-.1,2.15-.26,2.82-.49.67-.23,1.23-.57,1.68-1.02.39-.39.68-.84.89-1.34.2-.51.35-1.21.44-2.12s.13-2.18.13-3.82-.04-2.91-.13-3.82-.23-1.61-.42-2.12c-.19-.51-.49-.95-.87-1.34-.45-.45-1.01-.79-1.68-1.02-.67-.23-1.61-.39-2.83-.49s-2.96-.15-5.23-.15-4.03.04-5.24.13c-1.21.09-2.15.25-2.82.49-.67.24-1.22.58-1.65,1.04-.39.39-.69.84-.89,1.34-.21.51-.36,1.21-.45,2.12-.1.91-.15,2.19-.15,3.85s.05,2.89.15,3.8c.1.92.25,1.63.45,2.14.21.51.49.94.86,1.31.45.47,1.01.83,1.68,1.05.67.23,1.6.38,2.8.47,1.2.09,2.95.13,5.26.13s4-.05,5.21-.15Z"/>
          <path d="M979.03,578.3h12.46c2.42,0,4.41.07,5.97.21,1.56.14,2.79.48,3.67,1.02.93.52,1.56,1.23,1.91,2.14.34.91.52,2.19.52,3.85,0,1.53-.15,2.73-.45,3.61-.3.87-.82,1.57-1.55,2.09-.58.43-1.31.75-2.18.95-.87.21-2.07.35-3.58.44l8.54,8.22h-3.88l-8.35-8.12c-.63.02-1.51.03-2.65.03h-7.51v8.09h-2.91v-22.52ZM994.71,590.21c1.2-.04,2.11-.12,2.73-.24.63-.12,1.15-.3,1.59-.53.56-.32.95-.77,1.18-1.34.23-.57.34-1.42.34-2.54s-.11-1.93-.34-2.49c-.23-.56-.62-1-1.18-1.33-.43-.24-.96-.42-1.59-.55-.63-.13-1.54-.22-2.73-.26-1.2-.04-2.81-.06-4.84-.06h-7.93v9.42h7.93c2.03,0,3.64-.02,4.84-.06Z"/>
          <path d="M1022.84,578.3h3.5l13.14,22.52h-3.36l-3.27-5.63h-16.47l-3.27,5.63h-3.36l13.1-22.52ZM1031.55,592.8l-6.92-11.97-6.96,11.97h13.88Z"/>
          <path d="M1056.33,578.3h13.04c2.67,0,4.73.06,6.16.18,1.43.12,2.57.33,3.41.65.84.31,1.59.77,2.23,1.38.58.56,1.03,1.19,1.34,1.89.31.7.54,1.61.68,2.72.14,1.11.21,2.59.21,4.45s-.07,3.34-.21,4.45c-.14,1.11-.37,2.02-.68,2.72-.31.7-.76,1.33-1.34,1.89-.65.6-1.39,1.06-2.23,1.38-.84.31-1.98.53-3.41.65-1.44.12-3.49.18-6.16.18h-13.04v-22.52ZM1074.54,598.09c1.2-.1,2.13-.25,2.8-.47.67-.22,1.22-.54,1.65-.97.39-.39.69-.83.89-1.31.21-.49.34-1.17.42-2.05.08-.88.11-2.12.11-3.72s-.04-2.8-.13-3.69c-.09-.88-.23-1.57-.44-2.07-.21-.5-.49-.93-.86-1.29-.45-.45-1.01-.79-1.67-1-.66-.22-1.59-.37-2.8-.47-1.21-.1-2.92-.15-5.15-.15h-10.13v17.34h10.13c2.24,0,3.96-.05,5.16-.15Z"/>
          <path d="M1091.47,578.3h23.04v2.52h-20.13v7.57h18.06v2.33h-18.06v7.57h20.13v2.52h-23.04v-22.52Z"/>
          <path d="M1132.5,578.3h23.04v2.52h-20.13v7.57h18.06v2.33h-18.06v7.57h20.13v2.52h-23.04v-22.52Z"/>
          <path d="M1162.69,578.3h11c2.57,0,4.55.03,5.94.1,1.39.06,2.49.18,3.28.36.8.17,1.5.44,2.1.81.88.5,1.5,1.2,1.86,2.1.36.91.53,2.23.53,3.98s-.18,3.07-.53,3.98c-.36.91-.98,1.62-1.86,2.14-.6.35-1.31.6-2.1.78-.8.17-1.89.29-3.28.36-1.39.06-3.37.1-5.94.1h-8.09v7.83h-2.91v-22.52ZM1178.58,590.37c1.19-.04,2.1-.12,2.73-.24.64-.12,1.16-.31,1.57-.57.58-.32.99-.78,1.21-1.36.23-.58.34-1.43.34-2.56s-.11-1.97-.34-2.56c-.23-.58-.63-1.04-1.21-1.36-.41-.24-.93-.42-1.57-.55-.64-.13-1.55-.22-2.73-.26-1.19-.04-2.79-.06-4.82-.06h-8.15v9.58h8.15c2.03,0,3.63-.02,4.82-.06Z"/>
          <path d="M1194.69,578.3h2.91v22.52h-2.91v-22.52Z"/>
          <path d="M1223.77,600.79c-2.04-.24-3.85-.52-5.42-.84v-2.65c1.6.35,3.41.64,5.45.89,2.04.25,4.06.37,6.07.37,2.59,0,4.46-.06,5.61-.18,1.15-.12,2.03-.3,2.64-.53.65-.3,1.12-.7,1.41-1.2.29-.5.44-1.13.44-1.91,0-.63-.12-1.15-.36-1.59-.24-.43-.62-.8-1.13-1.1-.45-.24-1.05-.45-1.8-.65-.74-.19-1.75-.37-3.03-.52l-8.38-.94c-1.92-.22-3.43-.55-4.51-1-1.09-.45-1.86-1.05-2.31-1.8-.45-.74-.68-1.7-.68-2.86,0-1.34.21-2.39.63-3.15.42-.77,1.06-1.4,1.93-1.89.56-.3,1.18-.54,1.86-.71.68-.17,1.63-.31,2.86-.4,1.23-.1,2.9-.15,5.02-.15s4.27.08,6.33.24c2.06.16,3.84.36,5.35.6v2.65c-1.55-.26-3.36-.47-5.42-.65-2.06-.17-4.15-.26-6.26-.26-2.42,0-4.16.06-5.23.18-1.07.12-1.89.32-2.48.6-.54.26-.94.63-1.21,1.1-.27.47-.4,1.09-.4,1.84,0,.52.1.96.31,1.33.21.37.52.67.95.91.37.22.93.4,1.68.57.75.16,1.8.33,3.14.5l8.64.94c1.83.19,3.29.53,4.37,1,1.08.47,1.87,1.13,2.36,1.97.5.84.74,1.92.74,3.24s-.23,2.38-.7,3.19c-.46.81-1.22,1.47-2.28,1.99-.56.28-1.21.51-1.96.7-.74.18-1.75.32-3.03.4-1.27.09-2.98.13-5.11.13s-4.06-.12-6.1-.36Z"/>
        </g>
      </g>
      <g>
        <path d="M674.13,479.88h50.22c8.92.14,15.28.41,19.09.82,3.81.41,6.88,1.2,9.21,2.37,3.57,1.78,5.98,4.29,7.25,7.51,1.27,3.23,1.9,7.65,1.9,13.28,0,4.67-.43,8.51-1.29,11.53-.86,3.02-2.35,5.42-4.48,7.2-1.44,1.24-3.23,2.21-5.35,2.93-2.13.72-4.63,1.25-7.51,1.59l22.85,24.39h-25.42l-21.61-23.67h-25.32v23.67h-19.55v-71.62ZM728,512.15c3.19-.03,5.49-.1,6.9-.21,1.41-.1,2.45-.29,3.14-.57,1.3-.55,2.25-1.37,2.83-2.47.58-1.1.87-2.68.87-4.73,0-1.85-.29-3.31-.87-4.37-.58-1.06-1.53-1.87-2.83-2.42-.69-.27-1.73-.46-3.14-.57-1.41-.1-3.7-.17-6.9-.21-3.19-.03-7.02-.05-11.47-.05h-22.85v15.64h22.85c4.46,0,8.28-.02,11.47-.05Z"/>
        <path d="M776.83,479.88h81.5v16.47h-61.95v11.83h54.75v15.02h-54.75v11.83h61.95v16.47h-81.5v-71.62Z"/>
        <path d="M869.66,479.88h31.59l44.25,55.16h.1v-55.16h19.55v71.62h-31.59l-44.15-55.06h-.21v55.06h-19.55v-71.62Z"/>
        <path d="M1012.7,479.88h23.46l39.93,71.62h-22.43l-6.69-12.66h-45.07l-6.69,12.66h-22.43l39.93-71.62ZM1038.84,523.41l-14.2-27.06-14.61,27.06h28.81Z"/>
        <path d="M1105.32,551.61c-7.34-.62-13.93-1.37-19.76-2.26v-16.98c5.97.89,12.62,1.65,19.96,2.26,7.34.62,14.47.93,21.41.93,8.09,0,13.75-.05,16.98-.15,3.22-.1,5.42-.29,6.59-.57,1.03-.27,1.75-.74,2.16-1.39.41-.65.62-1.46.62-2.42,0-1.1-.21-1.97-.62-2.62-.41-.65-1.17-1.18-2.26-1.6-1.03-.34-2.4-.68-4.12-1.03-1.72-.34-3.74-.62-6.07-.82l-30.67-3.19c-6.72-.68-12.08-1.82-16.05-3.4-3.98-1.58-6.86-3.77-8.64-6.59-1.79-2.81-2.68-6.41-2.68-10.81,0-4.94.77-8.75,2.32-11.42,1.54-2.68,3.86-4.87,6.95-6.59,1.92-1.1,4.12-1.92,6.59-2.47,2.47-.55,5.93-.96,10.39-1.24,4.46-.27,10.63-.41,18.52-.41s15.23.26,22.64.77c7.41.51,13.86,1.15,19.35,1.9v16.98c-5.83-.75-12.47-1.39-19.91-1.9-7.44-.51-14.8-.77-22.07-.77-7.68,0-12.86.04-15.54.1-2.68.07-4.53.24-5.56.51-1.24.28-2.15.79-2.73,1.54-.58.76-.88,1.72-.88,2.88,0,.82.27,1.56.82,2.21.55.65,1.37,1.12,2.47,1.39.82.21,2.23.45,4.22.72,1.99.28,3.81.51,5.45.72l31.8,2.88c7,.62,12.37,1.7,16.11,3.24,3.74,1.54,6.38,3.79,7.92,6.74,1.54,2.95,2.31,7.03,2.31,12.25,0,4.39-.65,7.84-1.96,10.34-1.3,2.5-3.47,4.61-6.48,6.33-2.13,1.24-4.55,2.2-7.25,2.88-2.71.69-6.43,1.18-11.17,1.49-4.73.31-11.25.46-19.55.46-7.07,0-14.27-.31-21.61-.93Z"/>
        <path d="M1211.21,551.97c-4.87-.38-8.87-1.08-11.99-2.11-3.12-1.03-5.99-2.54-8.59-4.53-2.47-1.85-4.36-3.93-5.66-6.23-1.3-2.3-2.21-5.25-2.73-8.85-.51-3.6-.77-8.45-.77-14.56s.26-10.98.77-14.61c.51-3.64,1.42-6.6,2.73-8.9,1.3-2.3,3.19-4.41,5.66-6.33,2.54-1.92,5.39-3.38,8.54-4.37,3.16-.99,7.15-1.68,11.99-2.06,4.84-.38,11.44-.57,19.81-.57s15.37.26,22.02.77c6.65.51,12.04,1.15,16.16,1.9v17.49c-4.39-.75-9.95-1.39-16.67-1.9-6.72-.51-13.96-.77-21.71-.77-5.21,0-9.42.09-12.61.26-3.19.17-5.81.5-7.87.98-2.06.48-3.7,1.13-4.94,1.96-1.03.69-1.8,1.54-2.32,2.57-.51,1.03-.89,2.57-1.13,4.63-.24,2.06-.36,5.01-.36,8.85s.1,7,.31,9.06c.21,2.06.55,3.6,1.03,4.63.48,1.03,1.27,1.89,2.37,2.57,1.3.82,3,1.48,5.09,1.96,2.09.48,4.75.81,7.98.98,3.22.17,7.37.26,12.45.26,7.75,0,14.99-.26,21.71-.77,6.72-.51,12.28-1.15,16.67-1.9v17.49c-4.12.76-9.5,1.39-16.16,1.9-6.65.51-13.99.77-22.02.77s-14.89-.19-19.76-.57Z"/>
        <path d="M1282.01,479.88h81.5v16.47h-61.95v11.83h54.75v15.02h-54.75v11.83h61.95v16.47h-81.5v-71.62Z"/>
        <path d="M1373.8,479.88h50.22c8.92.14,15.28.41,19.09.82,3.81.41,6.88,1.2,9.21,2.37,3.57,1.78,5.98,4.29,7.25,7.51,1.27,3.23,1.9,7.65,1.9,13.28,0,4.67-.43,8.51-1.29,11.53-.86,3.02-2.35,5.42-4.48,7.2-1.44,1.24-3.23,2.21-5.35,2.93-2.13.72-4.63,1.25-7.51,1.59l22.85,24.39h-25.42l-21.61-23.67h-25.32v23.67h-19.55v-71.62ZM1427.68,512.15c3.19-.03,5.49-.1,6.9-.21,1.41-.1,2.45-.29,3.14-.57,1.3-.55,2.25-1.37,2.83-2.47.58-1.1.87-2.68.87-4.73,0-1.85-.29-3.31-.87-4.37-.58-1.06-1.53-1.87-2.83-2.42-.69-.27-1.73-.46-3.14-.57-1.41-.1-3.7-.17-6.9-.21-3.19-.03-7.02-.05-11.47-.05h-22.85v15.64h22.85c4.46,0,8.28-.02,11.47-.05Z"/>
      </g>
    </g>
    <path d="M581.72,602.24l29.38,29.38v8.15h-60.73l-18.52-18.52v18.52h-67.98l.03-94.04,147.92-24.71c4.35,8.32,6.64,17.99,6.64,28.31,0,24.24-15.28,44.91-36.74,52.91Z"/>
    <polygon points="599.38 495.24 593.5 486.06 575.21 457.31 544.44 446.65 539.77 440.22 522.84 442.94 490.59 448.13 461.67 479.9 458.43 506.51 456.83 519.91 454.3 523.06 456.39 535.49 634.53 505.73 633.47 499.31 599.38 495.24"/>
  </g>
</svg>