<?xml version="1.0" encoding="UTF-8"?>
<svg id="Camada_1" data-name="Camada 1" xmlns="http://www.w3.org/2000/svg" viewBox="0 0 1920 1080">
  <defs>
    <style>
      .cls-1 {
        fill: #fff;
      }
    </style>
  </defs>
  <rect class="cls-1" x="-4.18" width="1928.36" height="1080"/>
  <g>
    <g>
      <path d="M1211.39,702.78c.23-.07.43-.17.6-.33.17-.2.28-.44.33-.75.04-.3.07-.85.07-1.63l.59.46h-2.02v-4.13h3.12v3.32c0,1.15-.04,1.96-.13,2.43-.09.47-.26.86-.52,1.19-.26.3-.62.53-1.07.67-.46.14-1.14.21-2.05.21v-1.33c.5,0,.86-.03,1.09-.1Z"/>
      <g>
        <path d="M673.88,697.76h13.12c2.69,0,4.76.06,6.2.18,1.44.12,2.59.34,3.43.65.85.32,1.59.78,2.25,1.38.59.56,1.04,1.2,1.35,1.9.31.71.54,1.62.68,2.73.14,1.12.21,2.61.21,4.48s-.07,3.36-.21,4.48c-.14,1.12-.37,2.03-.68,2.73-.31.71-.77,1.34-1.35,1.9-.65.61-1.4,1.07-2.25,1.38-.85.31-1.99.53-3.43.65-1.44.12-3.51.18-6.2.18h-13.12v-22.66ZM692.19,717.67c1.2-.1,2.14-.26,2.82-.47.67-.22,1.23-.54,1.66-.98.39-.39.69-.83.9-1.32.21-.49.35-1.18.42-2.07.08-.89.11-2.14.11-3.74s-.04-2.82-.13-3.71c-.09-.89-.23-1.58-.44-2.08-.21-.5-.49-.93-.86-1.3-.46-.46-1.01-.79-1.68-1.01-.66-.22-1.6-.37-2.82-.47-1.22-.1-2.94-.15-5.18-.15h-10.19v17.45h10.19c2.26,0,3.99-.05,5.19-.15Z"/>
        <path d="M709.23,697.76h2.93v22.66h-2.93v-22.66Z"/>
        <path d="M726.69,720.39c-2.05-.24-3.87-.52-5.45-.85v-2.67c1.61.35,3.43.65,5.49.9,2.05.25,4.09.37,6.1.37,2.6,0,4.49-.06,5.65-.18,1.16-.12,2.05-.3,2.65-.54.65-.3,1.12-.7,1.42-1.2.29-.5.44-1.14.44-1.92,0-.63-.12-1.16-.36-1.59s-.62-.8-1.14-1.11c-.46-.24-1.06-.46-1.81-.65-.75-.2-1.76-.37-3.04-.52l-8.43-.94c-1.93-.22-3.45-.55-4.54-1.01-1.1-.46-1.87-1.06-2.33-1.81-.46-.75-.68-1.71-.68-2.88,0-1.35.21-2.4.63-3.17.42-.77,1.07-1.4,1.94-1.9.56-.3,1.19-.54,1.87-.72.68-.17,1.64-.31,2.88-.41,1.24-.1,2.92-.15,5.05-.15s4.29.08,6.36.24c2.07.16,3.87.36,5.39.6v2.67c-1.56-.26-3.38-.48-5.45-.65-2.07-.17-4.17-.26-6.3-.26-2.43,0-4.18.06-5.26.18-1.07.12-1.9.32-2.49.6-.54.26-.95.63-1.22,1.11-.27.48-.41,1.1-.41,1.86,0,.52.1.97.31,1.33.21.37.53.67.96.91.37.22.93.41,1.69.57.76.16,1.81.33,3.16.5l8.69.94c1.84.2,3.31.53,4.39,1.01,1.08.48,1.88,1.14,2.38,1.99.5.85.75,1.93.75,3.26s-.23,2.39-.7,3.21c-.47.81-1.23,1.48-2.3,2-.56.28-1.22.52-1.97.7-.75.18-1.76.32-3.04.41-1.28.09-2.99.13-5.14.13s-4.09-.12-6.14-.36Z"/>
        <path d="M762.91,700.37h-12.08v-2.6h27.08v2.6h-12.08v20.05h-2.93v-20.05Z"/>
        <path d="M784.2,697.76h12.53c2.43,0,4.43.07,6.01.21,1.57.14,2.8.48,3.69,1.03.93.52,1.57,1.24,1.92,2.15.35.91.52,2.2.52,3.87,0,1.54-.15,2.75-.46,3.63-.3.88-.82,1.58-1.56,2.1-.59.43-1.32.75-2.2.96-.88.21-2.08.35-3.6.44l8.59,8.27h-3.91l-8.4-8.17c-.63.02-1.52.03-2.67.03h-7.55v8.14h-2.93v-22.66ZM799.97,709.74c1.2-.04,2.12-.12,2.75-.24.63-.12,1.16-.3,1.59-.54.56-.33.96-.78,1.19-1.35.23-.57.34-1.43.34-2.56s-.11-1.94-.34-2.51c-.23-.56-.62-1.01-1.19-1.33-.43-.24-.97-.42-1.59-.55-.63-.13-1.55-.22-2.75-.26-1.2-.04-2.83-.07-4.87-.07h-7.98v9.47h7.98c2.04,0,3.66-.02,4.87-.07Z"/>
        <path d="M817.5,697.76h2.93v22.66h-2.93v-22.66Z"/>
        <path d="M829.02,697.76h11.65c2.5,0,4.42.03,5.76.08,1.35.05,2.38.14,3.09.26.72.12,1.32.31,1.82.57.78.41,1.37.98,1.76,1.71.39.73.59,1.71.59,2.95,0,1.13-.16,2.03-.47,2.72-.31.68-.81,1.24-1.48,1.68-.63.39-1.38.64-2.25.75.69.09,1.25.19,1.68.31.42.12.8.29,1.12.5.78.43,1.37,1.05,1.77,1.86.4.8.6,1.87.6,3.19s-.2,2.39-.6,3.19c-.4.8-1.03,1.43-1.87,1.89-.5.26-1.11.47-1.84.62-.73.15-1.77.26-3.14.31-1.37.05-3.32.08-5.86.08h-12.34v-22.66ZM845.35,707.48c1.14-.05,1.99-.13,2.54-.23.55-.1,1.01-.25,1.38-.47.5-.26.86-.61,1.07-1.06.22-.44.33-1.08.33-1.9s-.11-1.43-.33-1.89c-.22-.46-.56-.81-1.04-1.07-.35-.2-.8-.34-1.35-.42-.55-.09-1.39-.15-2.51-.2-1.12-.04-2.7-.07-4.74-.07h-8.76v7.39h8.72c1.97,0,3.53-.03,4.67-.08ZM846.19,717.93c1.14-.05,1.99-.14,2.56-.24.56-.11,1.03-.27,1.4-.49.54-.3.93-.71,1.16-1.22.23-.51.34-1.21.34-2.1s-.11-1.59-.34-2.1c-.23-.51-.59-.92-1.09-1.22-.35-.22-.81-.38-1.38-.5-.58-.12-1.45-.21-2.64-.26-1.18-.05-2.75-.08-4.7-.08h-9.54v8.3h9.47c2.04,0,3.63-.03,4.77-.08Z"/>
        <path d="M869.91,720.6c-1.37-.1-2.44-.27-3.22-.52-.78-.25-1.49-.65-2.12-1.19-.61-.5-1.06-1.07-1.37-1.71-.3-.64-.52-1.5-.65-2.59-.13-1.09-.2-2.58-.2-4.49v-12.34h2.96v12.34c0,1.63.04,2.87.13,3.73.09.86.23,1.5.42,1.92.2.42.48.79.85,1.09.41.35.92.6,1.53.76.61.16,1.48.28,2.62.36,1.14.08,2.78.11,4.93.11s3.79-.04,4.93-.11c1.14-.08,2.01-.2,2.62-.36s1.12-.42,1.53-.76c.37-.3.65-.67.85-1.09.2-.42.34-1.06.42-1.92.09-.86.13-2.1.13-3.73v-12.34h2.96v12.34c0,1.91-.07,3.41-.2,4.49-.13,1.09-.35,1.95-.65,2.59-.3.64-.76,1.21-1.37,1.71-.63.54-1.34.94-2.12,1.19-.78.25-1.86.42-3.22.52-1.37.1-3.33.15-5.89.15s-4.53-.05-5.89-.15Z"/>
        <path d="M897.74,697.76h2.93v22.66h-2.93v-22.66Z"/>
        <path d="M909.27,697.76h13.12c2.69,0,4.76.06,6.2.18,1.44.12,2.59.34,3.43.65.85.32,1.59.78,2.25,1.38.59.56,1.04,1.2,1.35,1.9.31.71.54,1.62.68,2.73.14,1.12.21,2.61.21,4.48s-.07,3.36-.21,4.48c-.14,1.12-.37,2.03-.68,2.73-.31.71-.77,1.34-1.35,1.9-.65.61-1.4,1.07-2.25,1.38-.85.31-1.99.53-3.43.65-1.44.12-3.51.18-6.2.18h-13.12v-22.66ZM927.58,717.67c1.2-.1,2.14-.26,2.82-.47.67-.22,1.23-.54,1.66-.98.39-.39.69-.83.9-1.32.21-.49.35-1.18.42-2.07.08-.89.11-2.14.11-3.74s-.04-2.82-.13-3.71c-.09-.89-.23-1.58-.44-2.08-.21-.5-.49-.93-.86-1.3-.46-.46-1.01-.79-1.68-1.01-.66-.22-1.6-.37-2.82-.47-1.22-.1-2.94-.15-5.18-.15h-10.19v17.45h10.19c2.26,0,3.99-.05,5.19-.15Z"/>
        <path d="M952.11,720.57c-1.45-.12-2.6-.34-3.45-.65-.85-.31-1.6-.79-2.25-1.42-.63-.59-1.1-1.24-1.42-1.97-.32-.73-.54-1.66-.67-2.8-.13-1.14-.2-2.67-.2-4.61s.07-3.5.2-4.64c.13-1.14.35-2.07.67-2.8.31-.73.79-1.38,1.42-1.97.65-.63,1.4-1.11,2.25-1.43.85-.33,2-.55,3.47-.67,1.46-.12,3.55-.18,6.27-.18s4.77.06,6.25.18c1.48.12,2.64.34,3.5.67.86.33,1.61.8,2.26,1.43.59.59,1.04,1.24,1.37,1.97.33.73.55,1.66.68,2.8s.2,2.67.2,4.61-.07,3.47-.2,4.61c-.13,1.14-.36,2.07-.68,2.8-.32.73-.78,1.38-1.37,1.97-.65.63-1.41,1.11-2.26,1.43-.86.33-2.02.55-3.5.67-1.48.12-3.56.18-6.25.18s-4.83-.06-6.28-.18ZM963.63,717.93c1.22-.1,2.16-.26,2.83-.49.67-.23,1.24-.57,1.69-1.03.39-.39.69-.84.9-1.35.21-.51.35-1.22.44-2.13.09-.91.13-2.19.13-3.84s-.04-2.93-.13-3.84c-.09-.91-.23-1.62-.42-2.13-.2-.51-.49-.96-.88-1.35-.46-.46-1.02-.8-1.69-1.03-.67-.23-1.62-.39-2.85-.49-1.23-.1-2.98-.15-5.26-.15s-4.06.04-5.27.13c-1.22.09-2.16.25-2.83.49-.67.24-1.23.59-1.66,1.04-.39.39-.69.84-.9,1.35-.21.51-.36,1.22-.46,2.13-.1.91-.15,2.2-.15,3.87s.05,2.9.15,3.82c.1.92.25,1.64.46,2.15.21.51.49.95.86,1.32.46.48,1.02.83,1.69,1.06.67.23,1.61.39,2.82.47,1.2.09,2.97.13,5.29.13s4.03-.05,5.24-.15Z"/>
        <path d="M980.62,697.76h12.53c2.43,0,4.43.07,6.01.21,1.57.14,2.8.48,3.69,1.03.93.52,1.57,1.24,1.92,2.15.35.91.52,2.2.52,3.87,0,1.54-.15,2.75-.46,3.63-.3.88-.82,1.58-1.56,2.1-.59.43-1.32.75-2.2.96-.88.21-2.08.35-3.6.44l8.59,8.27h-3.91l-8.4-8.17c-.63.02-1.52.03-2.67.03h-7.55v8.14h-2.93v-22.66ZM996.39,709.74c1.2-.04,2.12-.12,2.75-.24.63-.12,1.16-.3,1.59-.54.56-.33.96-.78,1.19-1.35.23-.57.34-1.43.34-2.56s-.11-1.94-.34-2.51c-.23-.56-.62-1.01-1.19-1.33-.43-.24-.97-.42-1.59-.55-.63-.13-1.55-.22-2.75-.26-1.2-.04-2.83-.07-4.87-.07h-7.98v9.47h7.98c2.04,0,3.66-.02,4.87-.07Z"/>
        <path d="M1024.7,697.76h3.52l13.22,22.66h-3.39l-3.29-5.66h-16.57l-3.29,5.66h-3.39l13.18-22.66ZM1033.46,712.35l-6.97-12.04-7,12.04h13.97Z"/>
        <path d="M1058.39,697.76h13.12c2.69,0,4.76.06,6.2.18,1.44.12,2.59.34,3.43.65.85.32,1.59.78,2.25,1.38.59.56,1.04,1.2,1.35,1.9.31.71.54,1.62.68,2.73s.21,2.61.21,4.48-.07,3.36-.21,4.48c-.14,1.12-.37,2.03-.68,2.73-.31.71-.77,1.34-1.35,1.9-.65.61-1.4,1.07-2.25,1.38-.85.31-1.99.53-3.43.65-1.44.12-3.51.18-6.2.18h-13.12v-22.66ZM1076.7,717.67c1.2-.1,2.14-.26,2.82-.47.67-.22,1.23-.54,1.66-.98.39-.39.69-.83.9-1.32.21-.49.35-1.18.42-2.07.08-.89.11-2.14.11-3.74s-.04-2.82-.13-3.71c-.09-.89-.23-1.58-.44-2.08-.21-.5-.49-.93-.86-1.3-.46-.46-1.01-.79-1.68-1.01-.66-.22-1.6-.37-2.82-.47-1.22-.1-2.94-.15-5.18-.15h-10.19v17.45h10.19c2.26,0,3.99-.05,5.19-.15Z"/>
        <path d="M1093.74,697.76h23.18v2.54h-20.25v7.62h18.16v2.34h-18.16v7.62h20.25v2.54h-23.18v-22.66Z"/>
        <path d="M1135.02,697.76h23.18v2.54h-20.25v7.62h18.16v2.34h-18.16v7.62h20.25v2.54h-23.18v-22.66Z"/>
        <path d="M1165.39,697.76h11.07c2.58,0,4.57.03,5.97.1,1.4.07,2.5.18,3.3.36.8.17,1.51.45,2.12.81.89.5,1.51,1.2,1.87,2.12.36.91.54,2.25.54,4s-.18,3.09-.54,4c-.36.91-.98,1.63-1.87,2.15-.61.35-1.31.61-2.12.78-.8.17-1.9.29-3.3.36-1.4.07-3.39.1-5.97.1h-8.14v7.88h-2.93v-22.66ZM1181.38,709.91c1.19-.04,2.11-.12,2.75-.24.64-.12,1.17-.31,1.58-.57.59-.33.99-.78,1.22-1.37.23-.59.34-1.44.34-2.57s-.11-1.99-.34-2.57c-.23-.59-.64-1.04-1.22-1.37-.41-.24-.94-.42-1.58-.55-.64-.13-1.56-.22-2.75-.26-1.19-.04-2.81-.07-4.85-.07h-8.2v9.64h8.2c2.04,0,3.66-.02,4.85-.07Z"/>
        <path d="M1197.59,697.76h2.93v22.66h-2.93v-22.66Z"/>
        <path d="M1226.84,720.39c-2.05-.24-3.87-.52-5.45-.85v-2.67c1.61.35,3.43.65,5.49.9,2.05.25,4.09.37,6.1.37,2.6,0,4.49-.06,5.65-.18,1.16-.12,2.05-.3,2.65-.54.65-.3,1.12-.7,1.42-1.2.29-.5.44-1.14.44-1.92,0-.63-.12-1.16-.36-1.59-.24-.43-.62-.8-1.14-1.11-.46-.24-1.06-.46-1.81-.65-.75-.2-1.76-.37-3.04-.52l-8.43-.94c-1.93-.22-3.45-.55-4.54-1.01-1.1-.46-1.87-1.06-2.33-1.81-.46-.75-.68-1.71-.68-2.88,0-1.35.21-2.4.63-3.17.42-.77,1.07-1.4,1.94-1.9.56-.3,1.19-.54,1.87-.72.68-.17,1.64-.31,2.88-.41,1.24-.1,2.92-.15,5.05-.15s4.29.08,6.36.24c2.07.16,3.87.36,5.39.6v2.67c-1.56-.26-3.38-.48-5.45-.65-2.07-.17-4.17-.26-6.3-.26-2.43,0-4.18.06-5.26.18-1.07.12-1.9.32-2.49.6-.54.26-.95.63-1.22,1.11-.27.48-.41,1.1-.41,1.86,0,.52.1.97.31,1.33.21.37.53.67.96.91.37.22.93.41,1.69.57.76.16,1.81.33,3.16.5l8.69.94c1.84.2,3.31.53,4.39,1.01,1.08.48,1.88,1.14,2.38,1.99.5.85.75,1.93.75,3.26s-.23,2.39-.7,3.21c-.47.81-1.23,1.48-2.3,2-.56.28-1.22.52-1.97.7-.75.18-1.76.32-3.04.41-1.28.09-2.99.13-5.14.13s-4.09-.12-6.14-.36Z"/>
      </g>
    </g>
    <g>
      <path d="M561.82,598.75h50.52c8.97.14,15.37.41,19.21.83,3.83.41,6.92,1.21,9.27,2.38,3.59,1.8,6.02,4.31,7.3,7.56,1.28,3.25,1.92,7.7,1.92,13.36,0,4.69-.43,8.56-1.29,11.6-.86,3.04-2.36,5.45-4.5,7.25-1.45,1.24-3.25,2.23-5.38,2.95-2.14.72-4.66,1.26-7.56,1.6l22.98,24.54h-25.57l-21.74-23.81h-25.47v23.81h-19.67v-72.06ZM616.02,631.21c3.21-.03,5.52-.1,6.94-.21,1.41-.1,2.47-.29,3.16-.57,1.31-.55,2.26-1.38,2.85-2.49.59-1.1.88-2.69.88-4.76,0-1.86-.29-3.33-.88-4.4-.59-1.07-1.54-1.88-2.85-2.43-.69-.28-1.74-.47-3.16-.57-1.42-.1-3.73-.17-6.94-.21-3.21-.03-7.06-.05-11.54-.05h-22.98v15.74h22.98c4.49,0,8.33-.02,11.54-.05Z"/>
      <path d="M665.14,598.75h82v16.56h-62.33v11.91h55.08v15.12h-55.08v11.91h62.33v16.56h-82v-72.06Z"/>
      <path d="M758.53,598.75h31.78l44.52,55.49h.1v-55.49h19.67v72.06h-31.78l-44.42-55.39h-.21v55.39h-19.67v-72.06Z"/>
      <path d="M902.44,598.75h23.61l40.17,72.06h-22.57l-6.73-12.73h-45.35l-6.73,12.73h-22.57l40.17-72.06ZM928.73,642.54l-14.29-27.23-14.7,27.23h28.99Z"/>
      <path d="M995.61,670.91c-7.39-.62-14.01-1.38-19.88-2.28v-17.08c6,.9,12.7,1.66,20.08,2.28,7.39.62,14.56.93,21.53.93,8.14,0,13.84-.05,17.08-.16,3.24-.1,5.45-.29,6.63-.57,1.04-.28,1.76-.74,2.17-1.4.41-.66.62-1.47.62-2.43,0-1.1-.21-1.98-.62-2.64-.41-.66-1.17-1.19-2.28-1.61-1.04-.34-2.42-.69-4.14-1.04-1.73-.34-3.76-.62-6.11-.83l-30.85-3.21c-6.77-.69-12.15-1.83-16.15-3.42-4-1.59-6.9-3.8-8.7-6.63-1.8-2.83-2.69-6.45-2.69-10.87,0-4.97.78-8.8,2.33-11.49,1.55-2.69,3.88-4.9,6.99-6.63,1.93-1.1,4.14-1.93,6.63-2.48,2.49-.55,5.97-.97,10.46-1.24,4.49-.28,10.7-.41,18.64-.41s15.32.26,22.78.78c7.45.52,13.94,1.16,19.46,1.92v17.08c-5.87-.76-12.55-1.4-20.03-1.92-7.49-.52-14.89-.78-22.21-.78-7.73,0-12.94.04-15.63.1-2.69.07-4.56.24-5.59.52-1.24.28-2.16.79-2.74,1.55-.59.76-.88,1.73-.88,2.9,0,.83.28,1.57.83,2.23.55.66,1.38,1.12,2.49,1.4.83.21,2.24.45,4.25.72,2,.28,3.83.52,5.49.73l31.99,2.9c7.04.62,12.44,1.71,16.2,3.26,3.76,1.55,6.42,3.81,7.97,6.78,1.55,2.97,2.33,7.08,2.33,12.32,0,4.42-.66,7.89-1.97,10.4-1.31,2.52-3.49,4.64-6.52,6.37-2.14,1.24-4.57,2.21-7.3,2.9-2.73.69-6.47,1.19-11.23,1.5-4.76.31-11.32.47-19.67.47-7.11,0-14.36-.31-21.74-.93Z"/>
      <path d="M1102.15,671.28c-4.9-.38-8.92-1.09-12.06-2.12-3.14-1.04-6.02-2.55-8.64-4.56-2.49-1.86-4.38-3.95-5.69-6.26-1.31-2.31-2.23-5.28-2.74-8.9-.52-3.62-.78-8.51-.78-14.65s.26-11.04.78-14.7c.52-3.66,1.43-6.64,2.74-8.96,1.31-2.31,3.21-4.43,5.69-6.37,2.55-1.93,5.42-3.4,8.59-4.4,3.17-1,7.2-1.69,12.06-2.07,4.87-.38,11.51-.57,19.93-.57s15.46.26,22.16.78c6.69.52,12.11,1.16,16.25,1.92v17.6c-4.42-.76-10.01-1.4-16.77-1.92-6.77-.52-14.05-.78-21.85-.78-5.25,0-9.47.09-12.68.26-3.21.17-5.85.5-7.92.98-2.07.48-3.73,1.14-4.97,1.97-1.04.69-1.81,1.55-2.33,2.59-.52,1.04-.9,2.59-1.14,4.66-.24,2.07-.36,5.04-.36,8.9s.1,7.04.31,9.11c.21,2.07.55,3.62,1.04,4.66.48,1.04,1.28,1.9,2.38,2.59,1.31.83,3.02,1.49,5.12,1.97,2.11.48,4.78.81,8.02.98,3.24.17,7.42.26,12.53.26,7.8,0,15.08-.26,21.85-.78,6.76-.52,12.35-1.16,16.77-1.92v17.6c-4.14.76-9.56,1.4-16.25,1.92-6.7.52-14.08.78-22.16.78s-14.98-.19-19.88-.57Z"/>
      <path d="M1173.38,598.75h82v16.56h-62.33v11.91h55.08v15.12h-55.08v11.91h62.33v16.56h-82v-72.06Z"/>
      <path d="M1265.73,598.75h50.52c8.97.14,15.37.41,19.21.83,3.83.41,6.92,1.21,9.27,2.38,3.59,1.8,6.02,4.31,7.3,7.56,1.28,3.25,1.92,7.7,1.92,13.36,0,4.69-.43,8.56-1.29,11.6-.86,3.04-2.36,5.45-4.5,7.25-1.45,1.24-3.25,2.23-5.38,2.95-2.14.72-4.66,1.26-7.56,1.6l22.98,24.54h-25.57l-21.74-23.81h-25.47v23.81h-19.67v-72.06ZM1319.92,631.21c3.21-.03,5.52-.1,6.94-.21,1.41-.1,2.47-.29,3.16-.57,1.31-.55,2.26-1.38,2.85-2.49.59-1.1.88-2.69.88-4.76,0-1.86-.29-3.33-.88-4.4-.59-1.07-1.54-1.88-2.85-2.43-.69-.28-1.74-.47-3.16-.57-1.42-.1-3.73-.17-6.94-.21-3.21-.03-7.06-.05-11.54-.05h-22.98v15.74h22.98c4.49,0,8.33-.02,11.54-.05Z"/>
    </g>
    <g>
      <path d="M997.53,522.25l29.56,29.56v8.2h-61.1l-18.63-18.63v18.63h-68.39l.03-94.61,148.81-24.86c4.37,8.37,6.68,18.09,6.68,28.48,0,24.39-15.38,45.19-36.96,53.23Z"/>
      <polygon points="1015.3 414.6 1009.38 405.36 990.98 376.45 960.03 365.72 955.33 359.25 938.3 361.99 905.85 367.21 876.75 399.16 873.49 425.94 871.89 439.43 869.34 442.6 871.45 455.1 1050.66 425.15 1049.6 418.7 1015.3 414.6"/>
    </g>
  </g>
</svg>